<svg width="24" height="24" viewBox="0 0 24 24" fill="none" xmlns="http://www.w3.org/2000/svg">
<g clip-path="url(#clip0_1740_15167)">
<path d="M20.5583 11.6898C20.5583 16.3522 16.8426 23.6573 12.2588 23.6573C7.67496 23.6573 3.95967 16.3522 3.95967 11.6898C3.95967 7.02743 7.67539 5.15906 12.2588 5.15906C16.8422 5.15906 20.5583 7.0283 20.5583 11.6898Z" fill="white"/>
<path d="M12.2587 24.0003C7.48815 24.0003 3.61656 16.5516 3.61656 11.6903C3.61656 7.32232 6.76655 4.81555 12.2587 4.81555C17.7509 4.81555 20.9013 7.32232 20.9013 11.6899C20.9013 16.5511 17.0294 24.0003 12.2587 24.0003ZM12.2587 5.50267C9.8664 5.50267 4.30252 6.1056 4.30252 11.6899C4.30252 16.174 7.94372 23.3142 12.2587 23.3142C16.5737 23.3142 20.2152 16.174 20.2152 11.6899C20.2152 6.10516 14.651 5.50223 12.2587 5.50223V5.50267Z" fill="#144A8F"/>
<path d="M5.14945 10.9123C5.14945 10.9123 4.33337 11.0427 3.93229 10.8763C3.39282 10.652 4.26846 9.979 4.26846 9.979L5.14945 10.9123Z" fill="#2494D1"/>
<path d="M14.2547 10.042C14.2547 11.0815 13.5712 11.4284 12.2822 11.9181C10.8239 11.9181 7.87724 11.0815 7.87724 10.042C7.87724 9.00244 11.094 8.15955 12.5523 8.15955C14.0106 8.15955 14.2547 9.00316 14.2547 10.042Z" fill="#2494D1"/>
<path d="M13.512 19.3998C13.512 19.3998 13.0585 17.5125 14.4792 16.8756C14.21 17.6022 13.6562 19.1785 14.0031 19.7353C14.35 20.292 13.512 19.3998 13.512 19.3998" fill="#2494D1"/>
<path d="M12.2587 24.0003C7.48815 24.0003 3.61656 16.5516 3.61656 11.6903C3.61656 7.32232 6.76655 4.81555 12.2587 4.81555C17.7509 4.81555 20.9013 7.32232 20.9013 11.6899C20.9013 16.5511 17.0294 24.0003 12.2587 24.0003ZM12.2587 5.50267C9.8664 5.50267 4.30252 6.1056 4.30252 11.6899C4.30252 16.174 7.94372 23.3142 12.2587 23.3142C16.5737 23.3142 20.2152 16.174 20.2152 11.6899C20.2152 6.10516 14.651 5.50223 12.2587 5.50223V5.50267Z" fill="#144A8F"/>
<path d="M9.60287 13.3213C9.60287 13.3213 10.0666 15.3 13.1665 15.5933C13.3743 15.6131 13.4971 15.3578 13.3855 15.1815C13.2397 14.9511 12.7747 14.5765 12.7672 14.27C13.4553 14.3497 14.5716 14.683 15.158 14.3653C15.3377 14.2683 15.327 14.0068 15.1407 13.9231C14.7599 13.7517 14.7784 13.1099 14.6034 12.7822" fill="#2494D1"/>
<path d="M9.69496 12.6934C9.69496 12.6934 9.96172 14.8706 13.8225 14.5893C13.5932 14.292 13.3495 13.974 13.3392 13.5409C14.1053 13.6295 15.0734 13.6503 15.5607 13.0791C15.1056 12.999 14.596 12.6483 14.3841 12.2532" fill="white"/>
<path d="M13.1527 14.9576C9.66924 14.9576 9.3664 12.8309 9.35466 12.735C9.34895 12.6903 9.35211 12.6449 9.36395 12.6014C9.37578 12.5579 9.39608 12.5172 9.42366 12.4815C9.45124 12.4458 9.48558 12.416 9.52471 12.3936C9.56384 12.3712 9.60699 12.3567 9.65171 12.351C9.69643 12.3453 9.74183 12.3485 9.78533 12.3603C9.82883 12.3722 9.86957 12.3924 9.90522 12.42C9.94088 12.4476 9.97076 12.4819 9.99314 12.5211C10.0155 12.5602 10.03 12.6034 10.0357 12.6481C10.047 12.7249 10.3127 14.2709 13.1543 14.2709H13.1938C13.0843 14.0637 13.0034 13.8264 12.997 13.5483C12.9959 13.4993 13.0053 13.4506 13.0246 13.4055C13.0439 13.3604 13.0726 13.32 13.1088 13.2869C13.145 13.2538 13.1879 13.2289 13.2346 13.2138C13.2812 13.1987 13.3306 13.1938 13.3793 13.1994C13.9974 13.2718 14.4737 13.255 14.817 13.15C14.505 12.9616 14.2348 12.6986 14.0825 12.4149C14.0395 12.3348 14.0301 12.2408 14.0564 12.1537C14.0827 12.0666 14.1425 11.9935 14.2226 11.9505C14.3028 11.9075 14.3968 11.8981 14.4838 11.9244C14.5709 11.9507 14.644 12.0105 14.687 12.0906C14.8455 12.3864 15.2645 12.6779 15.6208 12.7407C15.6803 12.7511 15.736 12.7772 15.7822 12.8161C15.8284 12.8551 15.8635 12.9055 15.884 12.9624C15.9044 13.0193 15.9095 13.0805 15.8986 13.14C15.8878 13.1995 15.8614 13.255 15.8222 13.301C15.3318 13.8759 14.5052 13.9614 13.786 13.9229C13.8641 14.0802 13.9777 14.2272 14.0948 14.3794C14.1325 14.4285 14.1563 14.4869 14.1636 14.5483C14.1708 14.6098 14.1614 14.6721 14.1361 14.7286C14.1109 14.7851 14.0708 14.8337 14.0202 14.8693C13.9695 14.9049 13.9102 14.9261 13.8485 14.9308C13.6029 14.9493 13.3713 14.9576 13.1527 14.9576Z" fill="#144A8F"/>
<path d="M14.8227 9.66052C14.8227 10.3382 13.6751 11.5867 12.2588 11.5867C10.8426 11.5867 9.69496 10.3382 9.69496 9.66052C9.69496 8.98282 10.7213 0.343384 12.1374 0.343384C13.5535 0.343384 14.8227 8.98325 14.8227 9.66052Z" fill="white"/>
<path d="M12.2589 11.9302C10.6824 11.9302 9.35161 10.5359 9.35161 9.66057C9.35161 9.56392 10.2181 0 12.1372 0C14.0798 0 15.1656 9.56348 15.1656 9.66057C15.1657 10.5359 13.8355 11.9302 12.2589 11.9302ZM12.1376 0.685818C11.2581 0.685818 10.0381 8.30994 10.0381 9.66042C10.0381 10.1196 10.9991 11.2436 12.2589 11.2436C13.5186 11.2436 14.4798 10.1196 14.4798 9.66042C14.4798 9.35453 14.164 7.03771 13.676 4.82072C12.7901 0.798551 12.1438 0.685818 12.1376 0.685818Z" fill="#144A8F"/>
<path d="M13.8 21.8126C13.8359 21.9952 13.5377 21.8034 13.2284 21.8642C12.9191 21.9249 12.7159 22.2165 12.68 22.0339C12.6441 21.8513 12.8295 21.473 13.1389 21.4118C13.4482 21.3506 13.764 21.6299 13.8 21.8126" fill="#144A8F"/>
<path d="M10.746 21.8126C10.7101 21.9952 11.0083 21.8034 11.3176 21.8642C11.627 21.9249 11.8302 22.2165 11.8661 22.0339C11.902 21.8513 11.7166 21.473 11.4072 21.4118C11.0978 21.3506 10.7819 21.6299 10.746 21.8126" fill="#144A8F"/>
<path d="M7.48355 6.85856C7.48355 6.85856 5.45652 5.8547 3.58237 5.97468C2.91712 7.90083 3.67988 9.82755 5.12455 10.5783" fill="white"/>
<path d="M5.12426 10.9214C5.06931 10.9214 5.01518 10.9081 4.96646 10.8827C3.30256 10.0182 2.56834 7.86011 3.25822 5.86296C3.28025 5.79902 3.3207 5.74302 3.37449 5.70202C3.42827 5.66102 3.49299 5.63686 3.56048 5.63257C5.50593 5.50332 7.54948 6.50776 7.63584 6.55051C7.71561 6.59189 7.77596 6.66292 7.80392 6.74833C7.83188 6.83374 7.82522 6.92671 7.78536 7.00725C7.74551 7.0878 7.67564 7.1495 7.59078 7.17908C7.50592 7.20866 7.41284 7.20377 7.33155 7.16546C7.313 7.15633 5.52941 6.28925 3.83725 6.30823C3.38052 7.92082 3.97838 9.59615 5.28278 10.2741C5.35093 10.3096 5.4052 10.3669 5.43692 10.4368C5.46863 10.5068 5.47594 10.5853 5.45769 10.6599C5.43944 10.7345 5.39667 10.8009 5.33624 10.8483C5.27581 10.8957 5.20121 10.9214 5.12441 10.9214H5.12426Z" fill="#144A8F"/>
<path d="M4.24152 7.26074C4.19573 7.54735 4.25442 8.7484 5.32234 9.58881C5.33122 9.59588 5.34216 9.59988 5.35351 9.60023C5.36486 9.60057 5.37601 9.59723 5.3853 9.59071C5.3946 9.58418 5.40153 9.57483 5.40507 9.56404C5.40861 9.55325 5.40856 9.54161 5.40493 9.53085C5.31799 9.26236 5.28438 9.09616 5.27365 8.95474C5.27274 8.94315 5.27513 8.93154 5.28055 8.92126C5.28597 8.91098 5.29419 8.90245 5.30426 8.89665C5.31434 8.89086 5.32585 8.88804 5.33746 8.88852C5.34907 8.889 5.36031 8.89277 5.36987 8.89939C5.46768 8.96546 5.58794 9.01168 5.8208 8.963C5.83822 8.95928 5.85452 8.95149 5.86836 8.94027C5.8822 8.92905 5.89319 8.91472 5.90044 8.89845C5.90768 8.88217 5.91098 8.86442 5.91006 8.84663C5.90914 8.82884 5.90402 8.81151 5.89513 8.79608C5.85471 8.72595 5.80385 8.64408 5.78776 8.53671C5.78553 8.52107 5.78678 8.50513 5.79141 8.49003C5.79604 8.47492 5.80394 8.46103 5.81455 8.44932C5.82516 8.43762 5.83822 8.4284 5.8528 8.42232C5.86738 8.41623 5.88312 8.41344 5.8989 8.41413C6.30564 8.42862 6.62341 8.4789 6.87771 8.29676" fill="#2494D1"/>
<path d="M6.73485 8.04093C6.73485 8.04093 5.72749 7.54232 4.52539 7.33801Z" fill="white"/>
<path d="M6.7344 8.38388C6.68187 8.38387 6.63005 8.37172 6.58298 8.34838C6.57327 8.3436 5.60272 7.86907 4.46741 7.67635C4.42227 7.66961 4.37893 7.65392 4.33993 7.63022C4.30093 7.60651 4.26705 7.57527 4.24027 7.53831C4.2135 7.50135 4.19437 7.45942 4.18399 7.41498C4.17362 7.37053 4.17222 7.32447 4.17988 7.27948C4.18753 7.23448 4.20408 7.19147 4.22856 7.15296C4.25305 7.11444 4.28497 7.08119 4.32246 7.05517C4.35995 7.02914 4.40225 7.01085 4.4469 7.00137C4.49154 6.9919 4.53763 6.99142 4.58246 6.99998C5.81978 7.21037 6.84293 7.71229 6.8864 7.73359C6.95575 7.76794 7.01144 7.82473 7.04442 7.89474C7.07741 7.96474 7.08574 8.04384 7.06808 8.11919C7.05042 8.19453 7.0078 8.26168 6.94714 8.30974C6.88648 8.3578 6.81135 8.38393 6.73397 8.38388H6.7344Z" fill="#144A8F"/>
<path d="M17.0343 6.8586C17.0343 6.8586 19.0612 5.85544 20.9355 5.97556C21.6007 7.90176 20.8379 9.82854 19.3933 10.5793" fill="white"/>
<path d="M19.3933 10.9214C19.3165 10.9214 19.2419 10.8957 19.1815 10.8483C19.121 10.8009 19.0783 10.7345 19.06 10.6599C19.0418 10.5853 19.0491 10.5068 19.0808 10.4368C19.1125 10.3668 19.1668 10.3096 19.2349 10.2741C20.539 9.59614 21.1375 7.92081 20.6806 6.30822C18.9799 6.28069 17.2047 7.15618 17.1861 7.16545C17.1046 7.2058 17.0103 7.2121 16.9241 7.18297C16.8379 7.15384 16.7669 7.09167 16.7265 7.01012C16.6861 6.92857 16.6798 6.83433 16.709 6.74814C16.7381 6.66194 16.8003 6.59085 16.8818 6.5505C16.9679 6.50804 19.0137 5.50722 20.9572 5.63256C21.0247 5.63689 21.0894 5.66107 21.1432 5.70206C21.197 5.74305 21.2374 5.79902 21.2595 5.86295C21.9491 7.8601 21.2147 10.0182 19.5511 10.8827C19.5024 10.9081 19.4482 10.9214 19.3933 10.9214V10.9214Z" fill="#144A8F"/>
<path d="M20.2763 7.26074C20.3221 7.54735 20.2634 8.7484 19.1955 9.58881C19.1866 9.59588 19.1757 9.59988 19.1643 9.60023C19.153 9.60057 19.1418 9.59723 19.1325 9.59071C19.1232 9.58418 19.1163 9.57483 19.1127 9.56404C19.1092 9.55325 19.1093 9.54161 19.1129 9.53085C19.1998 9.26236 19.2334 9.09616 19.2442 8.95474C19.2451 8.94315 19.2427 8.93154 19.2373 8.92126C19.2319 8.91098 19.2236 8.90245 19.2136 8.89665C19.2035 8.89086 19.192 8.88804 19.1804 8.88852C19.1687 8.889 19.1575 8.89277 19.1479 8.89939C19.0501 8.96546 18.9306 9.01168 18.697 8.963C18.6796 8.95928 18.6633 8.95149 18.6495 8.94027C18.6356 8.92905 18.6246 8.91472 18.6174 8.89845C18.6101 8.88217 18.6068 8.86442 18.6078 8.84663C18.6087 8.82884 18.6138 8.81151 18.6227 8.79608C18.6631 8.72595 18.7138 8.64408 18.7301 8.53671C18.7323 8.52107 18.731 8.50513 18.7264 8.49003C18.7218 8.47492 18.7139 8.46103 18.7033 8.44932C18.6927 8.43762 18.6796 8.4284 18.665 8.42232C18.6504 8.41623 18.6347 8.41344 18.6189 8.41413C18.2122 8.42862 17.8944 8.4789 17.6401 8.29676" fill="#2494D1"/>
<path d="M17.783 8.04093C17.783 8.04093 18.7901 7.54232 19.9923 7.33801Z" fill="white"/>
<path d="M17.7834 8.38379C17.706 8.38387 17.6309 8.35776 17.5702 8.30971C17.5095 8.26167 17.4669 8.19451 17.4492 8.11916C17.4315 8.0438 17.4398 7.96468 17.4728 7.89466C17.5058 7.82464 17.5615 7.76784 17.6308 7.73348C17.6743 7.71218 18.6975 7.21024 19.9348 6.99984C20.0245 6.9846 20.1166 7.00562 20.1908 7.05827C20.265 7.11092 20.3153 7.19089 20.3305 7.28059C20.3458 7.37028 20.3247 7.46236 20.2721 7.53656C20.2194 7.61076 20.1395 7.661 20.0498 7.67624C18.9149 7.86896 17.9443 8.34351 17.9341 8.34829C17.8873 8.37151 17.8357 8.38365 17.7834 8.38379Z" fill="#144A8F"/>
<path d="M19.0484 18.7724C18.1753 20.6615 16.4561 21.7253 15.2086 21.1488C13.9612 20.5722 13.6571 18.5729 14.5301 16.684C15.4031 14.795 17.1227 13.731 18.3699 14.3076C19.617 14.8841 19.9203 16.8833 19.048 18.7724" fill="white"/>
<path d="M15.9403 21.6498C15.638 21.6512 15.339 21.5863 15.0644 21.4599C14.353 21.1312 13.8806 20.4209 13.7347 19.4602C13.5965 18.5516 13.7685 17.5142 14.2187 16.5402C15.1702 14.4826 17.0984 13.3416 18.5142 13.9964C19.9301 14.6513 20.3111 16.8588 19.3601 18.9166C18.9097 19.8905 18.2314 20.6931 17.4495 21.177C16.942 21.4906 16.427 21.6498 15.9403 21.6498ZM17.6489 14.4961C16.6635 14.4961 15.4875 15.43 14.8414 16.8278C14.4469 17.6813 14.2946 18.5795 14.4129 19.3571C14.5232 20.0826 14.8567 20.6086 15.3521 20.8372C15.8476 21.0659 16.4641 20.98 17.0885 20.5937C17.7573 20.1794 18.3428 19.4817 18.7373 18.6282C19.5161 16.9432 19.2824 15.1071 18.2265 14.6189C18.0452 14.5363 17.8481 14.4944 17.6489 14.4961V14.4961Z" fill="#144A8F"/>
<path d="M17.2938 17.7244C17.2939 18.017 17.2071 18.303 17.0446 18.5463C16.882 18.7897 16.651 18.9793 16.3807 19.0913C16.1103 19.2033 15.8129 19.2327 15.5259 19.1756C15.2389 19.1185 14.9753 18.9777 14.7683 18.7708C14.5614 18.5639 14.4205 18.3003 14.3634 18.0133C14.3063 17.7263 14.3355 17.4288 14.4475 17.1585C14.5594 16.8881 14.749 16.657 14.9923 16.4944C15.2356 16.3318 15.5216 16.245 15.8142 16.245C16.2066 16.245 16.5828 16.4009 16.8602 16.6783C17.1376 16.9558 17.2935 17.332 17.2935 17.7244" fill="#144A8F"/>
<path d="M5.46927 18.7724C6.34245 20.6615 8.0617 21.7253 9.30916 21.1488C10.5566 20.5722 10.8609 18.5729 9.98773 16.684C9.11456 14.795 7.39501 13.731 6.14785 14.3076C4.90068 14.8841 4.5974 16.8833 5.46971 18.7724" fill="white"/>
<path d="M8.57754 21.6498C8.09096 21.6498 7.5757 21.4904 7.06825 21.1767C6.28665 20.6928 5.60808 19.8902 5.15802 18.9163C4.20674 16.8587 4.58609 14.6516 6.00352 13.9963C7.42094 13.3409 9.34798 14.4827 10.2993 16.54C10.7493 17.514 10.9213 18.5513 10.7832 19.46C10.637 20.4209 10.1648 21.1312 9.45304 21.4596C9.1786 21.5862 8.87977 21.6511 8.57754 21.6498V21.6498ZM6.86901 14.4962C6.66978 14.4945 6.4726 14.5364 6.29129 14.619C5.23568 15.1072 5.00167 16.9432 5.78066 18.6283C6.17493 19.4817 6.76063 20.1787 7.4292 20.5937C8.05358 20.9792 8.66985 21.0663 9.16526 20.8372C9.66068 20.6082 9.99468 20.0826 10.1051 19.3571C10.2232 18.5796 10.071 17.6813 9.67647 16.8279C9.03036 15.4305 7.85391 14.4962 6.86901 14.4962V14.4962Z" fill="#144A8F"/>
<path d="M5.46927 18.7724C6.34245 20.6615 8.0617 21.7253 9.30916 21.1488C10.5566 20.5722 10.8609 18.5729 9.98773 16.684C9.11456 14.795 7.39501 13.731 6.14785 14.3076C4.90068 14.8841 4.5974 16.8833 5.46971 18.7724" fill="white"/>
<path d="M8.57754 21.6498C8.09096 21.6498 7.5757 21.4904 7.06825 21.1767C6.28665 20.6928 5.60808 19.8902 5.15802 18.9163C4.20674 16.8587 4.58609 14.6516 6.00352 13.9963C7.42094 13.3409 9.34798 14.4827 10.2993 16.54C10.7493 17.514 10.9213 18.5513 10.7832 19.46C10.637 20.4209 10.1648 21.1312 9.45304 21.4596C9.1786 21.5862 8.87977 21.6511 8.57754 21.6498V21.6498ZM6.86901 14.4962C6.66978 14.4945 6.4726 14.5364 6.29129 14.619C5.23568 15.1072 5.00167 16.9432 5.78066 18.6283C6.17493 19.4817 6.76063 20.1787 7.4292 20.5937C8.05358 20.9792 8.66985 21.0663 9.16526 20.8372C9.66068 20.6082 9.99468 20.0826 10.1051 19.3571C10.2232 18.5796 10.071 17.6813 9.67647 16.8279C9.03036 15.4305 7.85391 14.4962 6.86901 14.4962V14.4962Z" fill="#144A8F"/>
<path d="M7.22403 17.7244C7.224 18.017 7.31074 18.303 7.47329 18.5464C7.63583 18.7897 7.86688 18.9793 8.1372 19.0913C8.40753 19.2033 8.705 19.2327 8.99199 19.1756C9.27898 19.1185 9.5426 18.9776 9.74952 18.7707C9.95643 18.5638 10.0973 18.3002 10.1544 18.0132C10.2115 17.7262 10.1823 17.4287 10.0703 17.1583C9.95831 16.888 9.76869 16.6569 9.5254 16.4943C9.2821 16.3318 8.99607 16.245 8.70346 16.245C8.31111 16.245 7.93484 16.4009 7.6574 16.6783C7.37995 16.9557 7.22407 17.332 7.22403 17.7244" fill="#144A8F"/>
<path d="M10.1896 17.7243C10.1896 18.0169 10.1028 18.3029 9.94028 18.5461C9.77773 18.7894 9.54669 18.979 9.27639 19.091C9.00608 19.2029 8.70864 19.2322 8.42169 19.1751C8.13473 19.1181 7.87115 18.9772 7.66426 18.7703C7.45738 18.5634 7.31649 18.2998 7.25941 18.0129C7.20233 17.7259 7.23163 17.4285 7.34359 17.1582C7.45556 16.8879 7.64516 16.6568 7.88843 16.4943C8.1317 16.3318 8.41771 16.245 8.71029 16.245C9.10262 16.245 9.47888 16.4008 9.75631 16.6783C10.0337 16.9557 10.1896 17.3319 10.1896 17.7243Z" fill="#144A8F"/>
<path d="M10.1807 16.9449C10.1808 17.1154 10.1303 17.2822 10.0356 17.424C9.94084 17.5658 9.80619 17.6764 9.64864 17.7417C9.49109 17.807 9.31771 17.8241 9.15044 17.7908C8.98317 17.7576 8.82952 17.6754 8.70893 17.5548C8.58833 17.4342 8.50622 17.2806 8.47296 17.1133C8.4397 16.946 8.4568 16.7727 8.52209 16.6151C8.58738 16.4576 8.69793 16.3229 8.83976 16.2282C8.98158 16.1335 9.14831 16.083 9.31886 16.083C9.54743 16.083 9.76663 16.1739 9.92825 16.3355C10.0899 16.4971 10.1807 16.7163 10.1807 16.9449" fill="white"/>
<path d="M10.4674 21.0185C10.0247 21.5707 10.0722 22.3716 10.5843 22.86C10.9449 23.2042 11.7346 23.4073 12.1389 23.4428C12.1389 23.4428 9.19007 23.2484 8.19748 21.7941C8.62321 21.351 9.74041 20.7481 10.077 20.3227C10.4136 19.8972 11.117 19.0717 11.5869 19.4851" fill="#2494D1"/>
<path d="M11.1168 19.3758C11.1168 19.3758 11.6802 16.1672 9.23395 15.2484C9.76052 16.4366 10.8521 19.0199 10.3293 19.9883C9.80645 20.9567 11.1168 19.3755 11.1168 19.3755" fill="#2494D1"/>
<path d="M12.2576 24.0006C10.6128 24.0006 8.9585 23.1206 7.47326 21.4556C7.44693 21.4262 7.4259 21.3925 7.4111 21.3559C6.52807 20.9325 5.69025 20.0682 5.15774 18.9171C4.20704 16.8595 4.58625 14.6516 6.00353 13.9969C6.71499 13.6677 7.56238 13.7681 8.3886 14.2797C9.17107 14.7636 9.84892 15.5663 10.2991 16.5402C10.7409 17.4966 10.8955 18.4842 10.7925 19.3344C11.634 18.5487 12.9585 18.5664 13.7797 19.3868L15.0009 20.6013C15.0328 20.633 15.0582 20.6708 15.0756 20.7123C15.093 20.7539 15.102 20.7985 15.1022 20.8435C15.1023 20.8886 15.0936 20.9332 15.0765 20.9749C15.0594 21.0166 15.0342 21.0545 15.0025 21.0864C14.9707 21.1184 14.933 21.1438 14.8914 21.1611C14.8499 21.1785 14.8053 21.1875 14.7602 21.1877C14.7152 21.1878 14.6706 21.1791 14.6289 21.162C14.5872 21.1449 14.5493 21.1198 14.5174 21.088L13.2953 19.8727C13.0202 19.5984 12.6477 19.4443 12.2592 19.4443C11.8708 19.4443 11.4982 19.5984 11.2232 19.8727L10.0285 21.0628C10.0178 21.0732 10.0065 21.0829 9.99455 21.0918C9.62358 21.4471 9.1298 21.6456 8.6161 21.6459C9.54245 22.5089 10.7982 23.3152 12.2575 23.3152C12.3484 23.3152 12.4356 23.3513 12.4999 23.4156C12.5642 23.4799 12.6003 23.5671 12.6003 23.658C12.6003 23.7489 12.5642 23.8361 12.4999 23.9004C12.4356 23.9647 12.3484 24.0009 12.2575 24.0009L12.2576 24.0006ZM5.78053 18.6292C6.57328 20.3432 8.09011 21.3346 9.16571 20.8382C10.2215 20.3497 10.4553 18.5134 9.67634 16.8283C9.28207 15.975 8.69652 15.277 8.0278 14.8631C7.40342 14.4768 6.78658 14.3909 6.2913 14.6195C5.2357 15.1074 5.00168 16.9436 5.78053 18.6292Z" fill="#144A8F"/>
<path d="M10.9773 9.22672C10.9773 9.22672 12.4146 10.4361 13.3972 10.1705C13.9913 10.0098 13.3638 11.288 11.06 10.9674C8.66171 10.6329 9.90484 8.1853 9.90484 8.1853L10.9773 9.22672Z" fill="#EB2126"/>
<path d="M11.2919 6.72171C11.4566 7.11106 12.71 7.70081 13.5813 7.65096C13.6389 7.64683 13.6963 7.66218 13.7441 7.69456C13.7919 7.72694 13.8275 7.77446 13.8451 7.82948C14.054 8.50516 14.0605 9.28241 13.8855 9.59467C13.7183 9.8936 9.88891 9.18894 9.87282 7.57677C9.85674 5.9646 10.5017 5.93127 10.5017 5.93127L11.2919 6.72171Z" fill="#EB2126"/>
<path d="M11.3174 4.02564C11.4466 4.39731 12.4266 4.98836 13.0862 5.04777C13.1639 5.05487 13.2379 5.08447 13.2991 5.13296C13.3603 5.18144 13.406 5.2467 13.4306 5.32076C13.6016 5.82588 13.6532 6.371 13.7349 6.85917C13.7861 7.16476 10.1654 6.49286 10.1517 4.88012C10.1381 3.26738 10.668 3.23608 10.668 3.23608L11.3174 4.02564Z" fill="#EB2126"/>
<path d="M13.4691 9.91759C12.3741 9.91759 11.3918 9.45839 11.0323 9.26828C10.3643 8.91471 9.62576 8.35032 9.55548 7.82635C9.5495 7.78169 9.55237 7.7363 9.56393 7.69276C9.57549 7.64922 9.59551 7.60838 9.62285 7.57257C9.67807 7.50026 9.75975 7.45284 9.84992 7.44076C9.9401 7.42867 10.0314 7.4529 10.1037 7.50812C10.176 7.56334 10.2234 7.64502 10.2355 7.7352C10.259 7.86967 10.6489 8.308 11.4444 8.7091C11.8791 8.92804 13.3931 9.59431 14.6357 8.97195C14.7169 8.93268 14.8103 8.92695 14.8957 8.95599C14.981 8.98504 15.0515 9.04652 15.0919 9.12715C15.1323 9.20778 15.1393 9.30107 15.1115 9.38684C15.0836 9.47261 15.0231 9.54397 14.9431 9.58547C14.4592 9.8276 13.9531 9.91759 13.4691 9.91759ZM13.2687 7.34121C12.6074 7.34121 11.8881 7.15385 11.1926 6.7858C10.614 6.47976 9.97381 5.98724 9.91151 5.52297C9.90103 5.43382 9.9259 5.34411 9.98078 5.27309C10.0357 5.20206 10.1162 5.15537 10.2051 5.14303C10.294 5.13069 10.3842 5.15368 10.4564 5.20707C10.5285 5.26046 10.5769 5.34 10.5911 5.42863C10.6227 5.54456 10.9968 5.95289 11.7491 6.29544C12.1898 6.49628 13.3157 6.91259 14.2522 6.44238C14.3333 6.40311 14.4267 6.39737 14.5121 6.42642C14.5975 6.45546 14.668 6.51695 14.7084 6.59758C14.7488 6.67821 14.7558 6.7715 14.7279 6.85727C14.7001 6.94304 14.6396 7.01439 14.5595 7.0559C14.178 7.24673 13.7379 7.34121 13.2687 7.34121Z" fill="#144A8F"/>
<path d="M13.0881 3.54038C13.1052 3.61113 13.094 3.68573 13.057 3.7484C13.02 3.81106 12.9601 3.85687 12.8899 3.87611C12.7267 3.92031 12.4914 4.01985 12.0615 4.03014C11.0872 4.05333 10.6928 2.87008 10.6928 2.87008C10.6928 2.87008 11.0732 0.598636 11.9285 0.621386C12.2183 0.62921 12.8684 2.62549 13.0877 3.54038" fill="#EB2126"/>
<path d="M12.2589 11.9302C10.6824 11.9302 9.35161 10.5359 9.35161 9.66057C9.35161 9.60145 9.67604 5.99949 10.3669 3.21159C10.3703 3.1798 10.3781 3.14863 10.3901 3.119C10.8261 1.39207 11.4044 0 12.1372 0C14.0798 0 15.1656 9.56348 15.1656 9.66057C15.1657 10.5359 13.8355 11.9302 12.2589 11.9302ZM10.8958 4.00406C10.4124 6.23959 10.0381 8.91215 10.0381 9.66013C10.0381 10.1193 10.9991 11.2433 12.2589 11.2433C13.5186 11.2433 14.4798 10.1193 14.4798 9.66013C14.4798 9.35424 14.164 7.03742 13.676 4.82043C13.6654 4.77203 13.6548 4.72393 13.6441 4.67683C12.9741 4.8526 12.1627 4.72856 11.3912 4.32052C11.2179 4.22841 11.0522 4.12259 10.8958 4.00406V4.00406ZM11.072 3.23014C11.1713 3.36417 11.5112 3.65818 12.056 3.87133C12.3761 3.99681 12.9508 4.16113 13.4882 4.01029C12.7001 0.782612 12.1434 0.685818 12.1376 0.685818C11.803 0.685818 11.4192 1.78924 11.072 3.23057V3.23014Z" fill="#144A8F"/>
<path d="M17.285 16.9449C17.285 17.1154 17.2345 17.2821 17.1398 17.424C17.0451 17.5658 16.9105 17.6763 16.7529 17.7416C16.5954 17.8069 16.422 17.824 16.2548 17.7908C16.0875 17.7576 15.9339 17.6755 15.8133 17.5549C15.6926 17.4344 15.6105 17.2807 15.5772 17.1135C15.5439 16.9462 15.561 16.7729 15.6262 16.6153C15.6915 16.4577 15.802 16.3231 15.9438 16.2283C16.0856 16.1336 16.2523 16.083 16.4228 16.083C16.6514 16.083 16.8706 16.1738 17.0323 16.3354C17.194 16.4971 17.2848 16.7163 17.2848 16.9449" fill="white"/>
<path d="M20.5583 11.6898C20.5583 16.3522 16.8426 23.6573 12.2588 23.6573C7.67496 23.6573 3.95967 16.3522 3.95967 11.6898C3.95967 7.02743 7.67539 5.15906 12.2588 5.15906C16.8422 5.15906 20.5583 7.0283 20.5583 11.6898Z" fill="white"/>
<path d="M12.2587 24.0003C7.48815 24.0003 3.61656 16.5516 3.61656 11.6903C3.61656 7.32232 6.76655 4.81555 12.2587 4.81555C17.7509 4.81555 20.9013 7.32232 20.9013 11.6899C20.9013 16.5511 17.0294 24.0003 12.2587 24.0003ZM12.2587 5.50267C9.8664 5.50267 4.30252 6.1056 4.30252 11.6899C4.30252 16.174 7.94372 23.3142 12.2587 23.3142C16.5737 23.3142 20.2152 16.174 20.2152 11.6899C20.2152 6.10516 14.651 5.50223 12.2587 5.50223V5.50267Z" fill="#144A8F"/>
<path d="M5.14945 10.9123C5.14945 10.9123 4.33337 11.0427 3.93229 10.8763C3.39282 10.652 4.26846 9.979 4.26846 9.979L5.14945 10.9123Z" fill="#2494D1"/>
<path d="M14.2547 10.042C14.2547 11.0815 13.5712 11.4284 12.2822 11.9181C10.8239 11.9181 7.87724 11.0815 7.87724 10.042C7.87724 9.00244 11.094 8.15955 12.5523 8.15955C14.0106 8.15955 14.2547 9.00316 14.2547 10.042Z" fill="#2494D1"/>
<path d="M13.512 19.3998C13.512 19.3998 13.0585 17.5125 14.4792 16.8756C14.21 17.6022 13.6562 19.1785 14.0031 19.7353C14.35 20.292 13.512 19.3998 13.512 19.3998" fill="#2494D1"/>
<path d="M12.2587 24.0003C7.48815 24.0003 3.61656 16.5516 3.61656 11.6903C3.61656 7.32232 6.76655 4.81555 12.2587 4.81555C17.7509 4.81555 20.9013 7.32232 20.9013 11.6899C20.9013 16.5511 17.0294 24.0003 12.2587 24.0003ZM12.2587 5.50267C9.8664 5.50267 4.30252 6.1056 4.30252 11.6899C4.30252 16.174 7.94372 23.3142 12.2587 23.3142C16.5737 23.3142 20.2152 16.174 20.2152 11.6899C20.2152 6.10516 14.651 5.50223 12.2587 5.50223V5.50267Z" fill="#144A8F"/>
<path d="M9.60287 13.3213C9.60287 13.3213 10.0666 15.3 13.1665 15.5933C13.3743 15.6131 13.4971 15.3578 13.3855 15.1815C13.2397 14.9511 12.7747 14.5765 12.7672 14.27C13.4553 14.3497 14.5716 14.683 15.158 14.3653C15.3377 14.2683 15.327 14.0068 15.1407 13.9231C14.7599 13.7517 14.7784 13.1099 14.6034 12.7822" fill="#2494D1"/>
<path d="M9.69496 12.6934C9.69496 12.6934 9.96172 14.8706 13.8225 14.5893C13.5932 14.292 13.3495 13.974 13.3392 13.5409C14.1053 13.6295 15.0734 13.6503 15.5607 13.0791C15.1056 12.999 14.596 12.6483 14.3841 12.2532" fill="white"/>
<path d="M13.1527 14.9576C9.66924 14.9576 9.3664 12.8309 9.35466 12.735C9.34895 12.6903 9.35211 12.6449 9.36395 12.6014C9.37578 12.5579 9.39608 12.5172 9.42366 12.4815C9.45124 12.4458 9.48558 12.416 9.52471 12.3936C9.56384 12.3712 9.60699 12.3567 9.65171 12.351C9.69643 12.3453 9.74183 12.3485 9.78533 12.3603C9.82883 12.3722 9.86957 12.3924 9.90522 12.42C9.94088 12.4476 9.97076 12.4819 9.99314 12.5211C10.0155 12.5602 10.03 12.6034 10.0357 12.6481C10.047 12.7249 10.3127 14.2709 13.1543 14.2709H13.1938C13.0843 14.0637 13.0034 13.8264 12.997 13.5483C12.9959 13.4993 13.0053 13.4506 13.0246 13.4055C13.0439 13.3604 13.0726 13.32 13.1088 13.2869C13.145 13.2538 13.1879 13.2289 13.2346 13.2138C13.2812 13.1987 13.3306 13.1938 13.3793 13.1994C13.9974 13.2718 14.4737 13.255 14.817 13.15C14.505 12.9616 14.2348 12.6986 14.0825 12.4149C14.0395 12.3348 14.0301 12.2408 14.0564 12.1537C14.0827 12.0666 14.1425 11.9935 14.2226 11.9505C14.3028 11.9075 14.3968 11.8981 14.4838 11.9244C14.5709 11.9507 14.644 12.0105 14.687 12.0906C14.8455 12.3864 15.2645 12.6779 15.6208 12.7407C15.6803 12.7511 15.736 12.7772 15.7822 12.8161C15.8284 12.8551 15.8635 12.9055 15.884 12.9624C15.9044 13.0193 15.9095 13.0805 15.8986 13.14C15.8878 13.1995 15.8614 13.255 15.8222 13.301C15.3318 13.8759 14.5052 13.9614 13.786 13.9229C13.8641 14.0802 13.9777 14.2272 14.0948 14.3794C14.1325 14.4285 14.1563 14.4869 14.1636 14.5483C14.1708 14.6098 14.1614 14.6721 14.1361 14.7286C14.1109 14.7851 14.0708 14.8337 14.0202 14.8693C13.9695 14.9049 13.9102 14.9261 13.8485 14.9308C13.6029 14.9493 13.3713 14.9576 13.1527 14.9576Z" fill="#144A8F"/>
<path d="M14.8227 9.66052C14.8227 10.3382 13.6751 11.5867 12.2588 11.5867C10.8426 11.5867 9.69496 10.3382 9.69496 9.66052C9.69496 8.98282 10.7213 0.343384 12.1374 0.343384C13.5535 0.343384 14.8227 8.98325 14.8227 9.66052Z" fill="white"/>
<path d="M12.2589 11.9302C10.6824 11.9302 9.35161 10.5359 9.35161 9.66057C9.35161 9.56392 10.2181 0 12.1372 0C14.0798 0 15.1656 9.56348 15.1656 9.66057C15.1657 10.5359 13.8355 11.9302 12.2589 11.9302ZM12.1376 0.685818C11.2581 0.685818 10.0381 8.30994 10.0381 9.66042C10.0381 10.1196 10.9991 11.2436 12.2589 11.2436C13.5186 11.2436 14.4798 10.1196 14.4798 9.66042C14.4798 9.35453 14.164 7.03771 13.676 4.82072C12.7901 0.798551 12.1438 0.685818 12.1376 0.685818Z" fill="#144A8F"/>
<path d="M13.8 21.8126C13.8359 21.9952 13.5377 21.8034 13.2284 21.8642C12.9191 21.9249 12.7159 22.2165 12.68 22.0339C12.6441 21.8513 12.8295 21.473 13.1389 21.4118C13.4482 21.3506 13.764 21.6299 13.8 21.8126" fill="#144A8F"/>
<path d="M10.746 21.8126C10.7101 21.9952 11.0083 21.8034 11.3176 21.8642C11.627 21.9249 11.8302 22.2165 11.8661 22.0339C11.902 21.8513 11.7166 21.473 11.4072 21.4118C11.0978 21.3506 10.7819 21.6299 10.746 21.8126" fill="#144A8F"/>
<path d="M7.48355 6.85856C7.48355 6.85856 5.45652 5.8547 3.58237 5.97468C2.91712 7.90083 3.67988 9.82755 5.12455 10.5783" fill="white"/>
<path d="M5.12426 10.9214C5.06931 10.9214 5.01518 10.9081 4.96646 10.8827C3.30256 10.0182 2.56834 7.86011 3.25822 5.86296C3.28025 5.79902 3.3207 5.74302 3.37449 5.70202C3.42827 5.66102 3.49299 5.63686 3.56048 5.63257C5.50593 5.50332 7.54948 6.50776 7.63584 6.55051C7.71561 6.59189 7.77596 6.66292 7.80392 6.74833C7.83188 6.83374 7.82522 6.92671 7.78536 7.00725C7.74551 7.0878 7.67564 7.1495 7.59078 7.17908C7.50592 7.20866 7.41284 7.20377 7.33155 7.16546C7.313 7.15633 5.52941 6.28925 3.83725 6.30823C3.38052 7.92082 3.97838 9.59615 5.28278 10.2741C5.35093 10.3096 5.4052 10.3669 5.43692 10.4368C5.46863 10.5068 5.47594 10.5853 5.45769 10.6599C5.43944 10.7345 5.39667 10.8009 5.33624 10.8483C5.27581 10.8957 5.20121 10.9214 5.12441 10.9214H5.12426Z" fill="#144A8F"/>
<path d="M4.24152 7.26074C4.19573 7.54735 4.25442 8.7484 5.32234 9.58881C5.33122 9.59588 5.34216 9.59988 5.35351 9.60023C5.36486 9.60057 5.37601 9.59723 5.3853 9.59071C5.3946 9.58418 5.40153 9.57483 5.40507 9.56404C5.40861 9.55325 5.40856 9.54161 5.40493 9.53085C5.31799 9.26236 5.28438 9.09616 5.27365 8.95474C5.27274 8.94315 5.27513 8.93154 5.28055 8.92126C5.28597 8.91098 5.29419 8.90245 5.30426 8.89665C5.31434 8.89086 5.32585 8.88804 5.33746 8.88852C5.34907 8.889 5.36031 8.89277 5.36987 8.89939C5.46768 8.96546 5.58794 9.01168 5.8208 8.963C5.83822 8.95928 5.85452 8.95149 5.86836 8.94027C5.8822 8.92905 5.89319 8.91472 5.90044 8.89845C5.90768 8.88217 5.91098 8.86442 5.91006 8.84663C5.90914 8.82884 5.90402 8.81151 5.89513 8.79608C5.85471 8.72595 5.80385 8.64408 5.78776 8.53671C5.78553 8.52107 5.78678 8.50513 5.79141 8.49003C5.79604 8.47492 5.80394 8.46103 5.81455 8.44932C5.82516 8.43762 5.83822 8.4284 5.8528 8.42232C5.86738 8.41623 5.88312 8.41344 5.8989 8.41413C6.30564 8.42862 6.62341 8.4789 6.87771 8.29676" fill="#2494D1"/>
<path d="M6.73485 8.04093C6.73485 8.04093 5.72749 7.54232 4.52539 7.33801Z" fill="white"/>
<path d="M6.7344 8.38388C6.68187 8.38387 6.63005 8.37172 6.58298 8.34838C6.57327 8.3436 5.60272 7.86907 4.46741 7.67635C4.42227 7.66961 4.37893 7.65392 4.33993 7.63022C4.30093 7.60651 4.26705 7.57527 4.24027 7.53831C4.2135 7.50135 4.19437 7.45942 4.18399 7.41498C4.17362 7.37053 4.17222 7.32447 4.17988 7.27948C4.18753 7.23448 4.20408 7.19147 4.22856 7.15296C4.25305 7.11444 4.28497 7.08119 4.32246 7.05517C4.35995 7.02914 4.40225 7.01085 4.4469 7.00137C4.49154 6.9919 4.53763 6.99142 4.58246 6.99998C5.81978 7.21037 6.84293 7.71229 6.8864 7.73359C6.95575 7.76794 7.01144 7.82473 7.04442 7.89474C7.07741 7.96474 7.08574 8.04384 7.06808 8.11919C7.05042 8.19453 7.0078 8.26168 6.94714 8.30974C6.88648 8.3578 6.81135 8.38393 6.73397 8.38388H6.7344Z" fill="#144A8F"/>
<path d="M17.0343 6.8586C17.0343 6.8586 19.0612 5.85544 20.9355 5.97556C21.6007 7.90176 20.8379 9.82854 19.3933 10.5793" fill="white"/>
<path d="M19.3933 10.9214C19.3165 10.9214 19.2419 10.8957 19.1815 10.8483C19.121 10.8009 19.0783 10.7345 19.06 10.6599C19.0418 10.5853 19.0491 10.5068 19.0808 10.4368C19.1125 10.3668 19.1668 10.3096 19.2349 10.2741C20.539 9.59614 21.1375 7.92081 20.6806 6.30822C18.9799 6.28069 17.2047 7.15618 17.1861 7.16545C17.1046 7.2058 17.0103 7.2121 16.9241 7.18297C16.8379 7.15384 16.7669 7.09167 16.7265 7.01012C16.6861 6.92857 16.6798 6.83433 16.709 6.74814C16.7381 6.66194 16.8003 6.59085 16.8818 6.5505C16.9679 6.50804 19.0137 5.50722 20.9572 5.63256C21.0247 5.63689 21.0894 5.66107 21.1432 5.70206C21.197 5.74305 21.2374 5.79902 21.2595 5.86295C21.9491 7.8601 21.2147 10.0182 19.5511 10.8827C19.5024 10.9081 19.4482 10.9214 19.3933 10.9214V10.9214Z" fill="#144A8F"/>
<path d="M20.2763 7.26074C20.3221 7.54735 20.2634 8.7484 19.1955 9.58881C19.1866 9.59588 19.1757 9.59988 19.1643 9.60023C19.153 9.60057 19.1418 9.59723 19.1325 9.59071C19.1232 9.58418 19.1163 9.57483 19.1127 9.56404C19.1092 9.55325 19.1093 9.54161 19.1129 9.53085C19.1998 9.26236 19.2334 9.09616 19.2442 8.95474C19.2451 8.94315 19.2427 8.93154 19.2373 8.92126C19.2319 8.91098 19.2236 8.90245 19.2136 8.89665C19.2035 8.89086 19.192 8.88804 19.1804 8.88852C19.1687 8.889 19.1575 8.89277 19.1479 8.89939C19.0501 8.96546 18.9306 9.01168 18.697 8.963C18.6796 8.95928 18.6633 8.95149 18.6495 8.94027C18.6356 8.92905 18.6246 8.91472 18.6174 8.89845C18.6101 8.88217 18.6068 8.86442 18.6078 8.84663C18.6087 8.82884 18.6138 8.81151 18.6227 8.79608C18.6631 8.72595 18.7138 8.64408 18.7301 8.53671C18.7323 8.52107 18.731 8.50513 18.7264 8.49003C18.7218 8.47492 18.7139 8.46103 18.7033 8.44932C18.6927 8.43762 18.6796 8.4284 18.665 8.42232C18.6504 8.41623 18.6347 8.41344 18.6189 8.41413C18.2122 8.42862 17.8944 8.4789 17.6401 8.29676" fill="#2494D1"/>
<path d="M17.783 8.04093C17.783 8.04093 18.7901 7.54232 19.9923 7.33801Z" fill="white"/>
<path d="M17.7834 8.38379C17.706 8.38387 17.6309 8.35776 17.5702 8.30971C17.5095 8.26167 17.4669 8.19451 17.4492 8.11916C17.4315 8.0438 17.4398 7.96468 17.4728 7.89466C17.5058 7.82464 17.5615 7.76784 17.6308 7.73348C17.6743 7.71218 18.6975 7.21024 19.9348 6.99984C20.0245 6.9846 20.1166 7.00562 20.1908 7.05827C20.265 7.11092 20.3153 7.19089 20.3305 7.28059C20.3458 7.37028 20.3247 7.46236 20.2721 7.53656C20.2194 7.61076 20.1395 7.661 20.0498 7.67624C18.9149 7.86896 17.9443 8.34351 17.9341 8.34829C17.8873 8.37151 17.8357 8.38365 17.7834 8.38379Z" fill="#144A8F"/>
<path d="M19.0484 18.7724C18.1753 20.6615 16.4561 21.7253 15.2086 21.1488C13.9612 20.5722 13.6571 18.5729 14.5301 16.684C15.4031 14.795 17.1227 13.731 18.3699 14.3076C19.617 14.8841 19.9203 16.8833 19.048 18.7724" fill="white"/>
<path d="M15.9403 21.6498C15.638 21.6512 15.339 21.5863 15.0644 21.4599C14.353 21.1312 13.8806 20.4209 13.7347 19.4602C13.5965 18.5516 13.7685 17.5142 14.2187 16.5402C15.1702 14.4826 17.0984 13.3416 18.5142 13.9964C19.9301 14.6513 20.3111 16.8588 19.3601 18.9166C18.9097 19.8905 18.2314 20.6931 17.4495 21.177C16.942 21.4906 16.427 21.6498 15.9403 21.6498ZM17.6489 14.4961C16.6635 14.4961 15.4875 15.43 14.8414 16.8278C14.4469 17.6813 14.2946 18.5795 14.4129 19.3571C14.5232 20.0826 14.8567 20.6086 15.3521 20.8372C15.8476 21.0659 16.4641 20.98 17.0885 20.5937C17.7573 20.1794 18.3428 19.4817 18.7373 18.6282C19.5161 16.9432 19.2824 15.1071 18.2265 14.6189C18.0452 14.5363 17.8481 14.4944 17.6489 14.4961V14.4961Z" fill="#144A8F"/>
<path d="M5.46927 18.7724C6.34245 20.6615 8.0617 21.7253 9.30916 21.1488C10.5566 20.5722 10.8609 18.5729 9.98773 16.684C9.11456 14.795 7.39501 13.731 6.14785 14.3076C4.90068 14.8841 4.5974 16.8833 5.46971 18.7724" fill="white"/>
<path d="M8.57754 21.6498C8.09096 21.6498 7.5757 21.4904 7.06825 21.1767C6.28665 20.6928 5.60808 19.8902 5.15802 18.9163C4.20674 16.8587 4.58609 14.6516 6.00352 13.9963C7.42094 13.3409 9.34798 14.4827 10.2993 16.54C10.7493 17.514 10.9213 18.5513 10.7832 19.46C10.637 20.4209 10.1648 21.1312 9.45304 21.4596C9.1786 21.5862 8.87977 21.6511 8.57754 21.6498V21.6498ZM6.86901 14.4962C6.66978 14.4945 6.4726 14.5364 6.29129 14.619C5.23568 15.1072 5.00167 16.9432 5.78066 18.6283C6.17493 19.4817 6.76063 20.1787 7.4292 20.5937C8.05358 20.9792 8.66985 21.0663 9.16526 20.8372C9.66068 20.6082 9.99468 20.0826 10.1051 19.3571C10.2232 18.5796 10.071 17.6813 9.67647 16.8279C9.03036 15.4305 7.85391 14.4962 6.86901 14.4962V14.4962Z" fill="#144A8F"/>
<path d="M5.46927 18.7724C6.34245 20.6615 8.0617 21.7253 9.30916 21.1488C10.5566 20.5722 10.8609 18.5729 9.98773 16.684C9.11456 14.795 7.39501 13.731 6.14785 14.3076C4.90068 14.8841 4.5974 16.8833 5.46971 18.7724" fill="white"/>
<path d="M8.57754 21.6498C8.09096 21.6498 7.5757 21.4904 7.06825 21.1767C6.28665 20.6928 5.60808 19.8902 5.15802 18.9163C4.20674 16.8587 4.58609 14.6516 6.00352 13.9963C7.42094 13.3409 9.34798 14.4827 10.2993 16.54C10.7493 17.514 10.9213 18.5513 10.7832 19.46C10.637 20.4209 10.1648 21.1312 9.45304 21.4596C9.1786 21.5862 8.87977 21.6511 8.57754 21.6498V21.6498ZM6.86901 14.4962C6.66978 14.4945 6.4726 14.5364 6.29129 14.619C5.23568 15.1072 5.00167 16.9432 5.78066 18.6283C6.17493 19.4817 6.76063 20.1787 7.4292 20.5937C8.05358 20.9792 8.66985 21.0663 9.16526 20.8372C9.66068 20.6082 9.99468 20.0826 10.1051 19.3571C10.2232 18.5796 10.071 17.6813 9.67647 16.8279C9.03036 15.4305 7.85391 14.4962 6.86901 14.4962V14.4962Z" fill="#144A8F"/>
<path d="M10.1092 17.2858C10.0572 17.4075 9.97791 17.5156 9.8774 17.6017C9.77689 17.6878 9.65789 17.7496 9.52963 17.7822C9.40138 17.8148 9.26733 17.8175 9.1379 17.7899C9.00847 17.7623 8.88714 17.7052 8.78334 17.6231C8.67954 17.541 8.59607 17.4361 8.53941 17.3165C8.48275 17.1969 8.45442 17.0659 8.45663 16.9336C8.45884 16.8012 8.49153 16.6712 8.55216 16.5536C8.61279 16.4359 8.69972 16.3339 8.8062 16.2553C8.77171 16.253 8.73868 16.245 8.70347 16.245C8.41089 16.245 8.12488 16.3318 7.88161 16.4943C7.63834 16.6568 7.44874 16.8879 7.33677 17.1582C7.22481 17.4285 7.19551 17.7259 7.25259 18.0129C7.30967 18.2998 7.45056 18.5634 7.65744 18.7703C7.86433 18.9772 8.12791 19.1181 8.41487 19.1751C8.70182 19.2322 8.99926 19.2029 9.26957 19.091C9.53987 18.979 9.77091 18.7894 9.93346 18.5461C10.096 18.3029 10.1828 18.0169 10.1828 17.7243C10.1807 17.5752 10.1559 17.4274 10.1092 17.2858Z" fill="#144A8F"/>
<path d="M10.4674 21.0185C10.0247 21.5707 10.0722 22.3716 10.5843 22.86C10.9449 23.2042 11.7346 23.4073 12.1389 23.4428C12.1389 23.4428 9.19007 23.2484 8.19748 21.7941C8.62321 21.351 9.74041 20.7481 10.077 20.3227C10.4136 19.8972 11.117 19.0717 11.5869 19.4851" fill="#2494D1"/>
<path d="M11.1168 19.3758C11.1168 19.3758 11.6802 16.1672 9.23395 15.2484C9.76052 16.4366 10.8521 19.0199 10.3293 19.9883C9.80645 20.9567 11.1168 19.3755 11.1168 19.3755" fill="#2494D1"/>
<path d="M12.2576 24.0006C10.6128 24.0006 8.9585 23.1206 7.47326 21.4556C7.44693 21.4262 7.4259 21.3925 7.4111 21.3559C6.52807 20.9325 5.69025 20.0682 5.15774 18.9171C4.20704 16.8595 4.58625 14.6516 6.00353 13.9969C6.71499 13.6677 7.56238 13.7681 8.3886 14.2797C9.17107 14.7636 9.84892 15.5663 10.2991 16.5402C10.7409 17.4966 10.8955 18.4842 10.7925 19.3344C11.634 18.5487 12.9585 18.5664 13.7797 19.3868L15.0009 20.6013C15.0328 20.633 15.0582 20.6708 15.0756 20.7123C15.093 20.7539 15.102 20.7985 15.1022 20.8435C15.1023 20.8886 15.0936 20.9332 15.0765 20.9749C15.0594 21.0166 15.0342 21.0545 15.0025 21.0864C14.9707 21.1184 14.933 21.1438 14.8914 21.1611C14.8499 21.1785 14.8053 21.1875 14.7602 21.1877C14.7152 21.1878 14.6706 21.1791 14.6289 21.162C14.5872 21.1449 14.5493 21.1198 14.5174 21.088L13.2953 19.8727C13.0202 19.5984 12.6477 19.4443 12.2592 19.4443C11.8708 19.4443 11.4982 19.5984 11.2232 19.8727L10.0285 21.0628C10.0178 21.0732 10.0065 21.0829 9.99455 21.0918C9.62358 21.4471 9.1298 21.6456 8.6161 21.6459C9.54245 22.5089 10.7982 23.3152 12.2575 23.3152C12.3484 23.3152 12.4356 23.3513 12.4999 23.4156C12.5642 23.4799 12.6003 23.5671 12.6003 23.658C12.6003 23.7489 12.5642 23.8361 12.4999 23.9004C12.4356 23.9647 12.3484 24.0009 12.2575 24.0009L12.2576 24.0006ZM5.78053 18.6292C6.57328 20.3432 8.09011 21.3346 9.16571 20.8382C10.2215 20.3497 10.4553 18.5134 9.67634 16.8283C9.28207 15.975 8.69652 15.277 8.0278 14.8631C7.40342 14.4768 6.78658 14.3909 6.2913 14.6195C5.2357 15.1074 5.00168 16.9436 5.78053 18.6292Z" fill="#144A8F"/>
<path d="M10.9773 9.22672C10.9773 9.22672 12.4146 10.4361 13.3972 10.1705C13.9913 10.0098 13.3638 11.288 11.06 10.9674C8.66171 10.6329 9.90484 8.1853 9.90484 8.1853L10.9773 9.22672Z" fill="#EB2126"/>
<path d="M11.2919 6.72171C11.4566 7.11106 12.71 7.70081 13.5813 7.65096C13.6389 7.64683 13.6963 7.66218 13.7441 7.69456C13.7919 7.72694 13.8275 7.77446 13.8451 7.82948C14.054 8.50516 14.0605 9.28241 13.8855 9.59467C13.7183 9.8936 9.88891 9.18894 9.87282 7.57677C9.85674 5.9646 10.5017 5.93127 10.5017 5.93127L11.2919 6.72171Z" fill="#EB2126"/>
<path d="M11.3174 4.02564C11.4466 4.39731 12.4266 4.98836 13.0862 5.04777C13.1639 5.05487 13.2379 5.08447 13.2991 5.13296C13.3603 5.18144 13.406 5.2467 13.4306 5.32076C13.6016 5.82588 13.6532 6.371 13.7349 6.85917C13.7861 7.16476 10.1654 6.49286 10.1517 4.88012C10.1381 3.26738 10.668 3.23608 10.668 3.23608L11.3174 4.02564Z" fill="#EB2126"/>
<path d="M13.4691 9.91759C12.3741 9.91759 11.3918 9.45839 11.0323 9.26828C10.3643 8.91471 9.62576 8.35032 9.55548 7.82635C9.5495 7.78169 9.55237 7.7363 9.56393 7.69276C9.57549 7.64922 9.59551 7.60838 9.62285 7.57257C9.67807 7.50026 9.75975 7.45284 9.84992 7.44076C9.9401 7.42867 10.0314 7.4529 10.1037 7.50812C10.176 7.56334 10.2234 7.64502 10.2355 7.7352C10.259 7.86967 10.6489 8.308 11.4444 8.7091C11.8791 8.92804 13.3931 9.59431 14.6357 8.97195C14.7169 8.93268 14.8103 8.92695 14.8957 8.95599C14.981 8.98504 15.0515 9.04652 15.0919 9.12715C15.1323 9.20778 15.1393 9.30107 15.1115 9.38684C15.0836 9.47261 15.0231 9.54397 14.9431 9.58547C14.4592 9.8276 13.9531 9.91759 13.4691 9.91759ZM13.2687 7.34121C12.6074 7.34121 11.8881 7.15385 11.1926 6.7858C10.614 6.47976 9.97381 5.98724 9.91151 5.52297C9.90103 5.43382 9.9259 5.34411 9.98078 5.27309C10.0357 5.20206 10.1162 5.15537 10.2051 5.14303C10.294 5.13069 10.3842 5.15368 10.4564 5.20707C10.5285 5.26046 10.5769 5.34 10.5911 5.42863C10.6227 5.54456 10.9968 5.95289 11.7491 6.29544C12.1898 6.49628 13.3157 6.91259 14.2522 6.44238C14.3333 6.40311 14.4267 6.39737 14.5121 6.42642C14.5975 6.45546 14.668 6.51695 14.7084 6.59758C14.7488 6.67821 14.7558 6.7715 14.7279 6.85727C14.7001 6.94304 14.6396 7.01439 14.5595 7.0559C14.178 7.24673 13.7379 7.34121 13.2687 7.34121Z" fill="#144A8F"/>
<path d="M13.0881 3.54038C13.1052 3.61113 13.094 3.68573 13.057 3.7484C13.02 3.81106 12.9601 3.85687 12.8899 3.87611C12.7267 3.92031 12.4914 4.01985 12.0615 4.03014C11.0872 4.05333 10.6928 2.87008 10.6928 2.87008C10.6928 2.87008 11.0732 0.598636 11.9285 0.621386C12.2183 0.62921 12.8684 2.62549 13.0877 3.54038" fill="#EB2126"/>
<path d="M12.2589 11.9302C10.6824 11.9302 9.35161 10.5359 9.35161 9.66057C9.35161 9.60145 9.67604 5.99949 10.3669 3.21159C10.3703 3.1798 10.3781 3.14863 10.3901 3.119C10.8261 1.39207 11.4044 0 12.1372 0C14.0798 0 15.1656 9.56348 15.1656 9.66057C15.1657 10.5359 13.8355 11.9302 12.2589 11.9302ZM10.8958 4.00406C10.4124 6.23959 10.0381 8.91215 10.0381 9.66013C10.0381 10.1193 10.9991 11.2433 12.2589 11.2433C13.5186 11.2433 14.4798 10.1193 14.4798 9.66013C14.4798 9.35424 14.164 7.03742 13.676 4.82043C13.6654 4.77203 13.6548 4.72393 13.6441 4.67683C12.9741 4.8526 12.1627 4.72856 11.3912 4.32052C11.2179 4.22841 11.0522 4.12259 10.8958 4.00406V4.00406ZM11.072 3.23014C11.1713 3.36417 11.5112 3.65818 12.056 3.87133C12.3761 3.99681 12.9508 4.16113 13.4882 4.01029C12.7001 0.782612 12.1434 0.685818 12.1376 0.685818C11.803 0.685818 11.4192 1.78924 11.072 3.23057V3.23014Z" fill="#144A8F"/>
<path d="M17.2177 17.2783C17.1668 17.401 17.0882 17.5102 16.9881 17.5975C16.888 17.6848 16.7691 17.7477 16.6406 17.7814C16.5121 17.8151 16.3776 17.8187 16.2475 17.7917C16.1175 17.7648 15.9954 17.7082 15.8908 17.6263C15.7863 17.5444 15.7021 17.4394 15.6448 17.3196C15.5875 17.1998 15.5587 17.0683 15.5607 16.9355C15.5626 16.8027 15.5953 16.6721 15.656 16.554C15.7168 16.4359 15.8041 16.3335 15.911 16.2547C15.8785 16.2525 15.8475 16.245 15.8145 16.245C15.5219 16.245 15.2359 16.3318 14.9926 16.4943C14.7494 16.6568 14.5598 16.8879 14.4478 17.1582C14.3358 17.4285 14.3066 17.7259 14.3636 18.0129C14.4207 18.2998 14.5616 18.5634 14.7685 18.7703C14.9754 18.9772 15.2389 19.1181 15.5259 19.1751C15.8128 19.2322 16.1103 19.2029 16.3806 19.091C16.6509 18.979 16.8819 18.7894 17.0445 18.5461C17.207 18.3029 17.2938 18.0169 17.2938 17.7243C17.2917 17.5726 17.266 17.4221 17.2177 17.2783V17.2783Z" fill="#144A8F"/>
</g>
<defs>
<clipPath id="clip0_1740_15167">
<rect width="18.5177" height="24" fill="white" transform="translate(3)"/>
</clipPath>
</defs>
</svg>
