<svg width="35" height="36" viewBox="0 0 35 36" fill="none" xmlns="http://www.w3.org/2000/svg">
<path fill-rule="evenodd" clip-rule="evenodd" d="M17.5 3.16676C14.0345 3.16323 10.681 4.39397 8.04042 6.63841C5.39987 8.88285 3.64491 11.9943 3.09003 15.4151C2.53515 18.836 3.21664 22.3426 5.01235 25.3066C6.80806 28.2706 9.60063 30.4983 12.8896 31.5904C13.6237 31.7247 13.8833 31.2681 13.8833 30.8831C13.8833 30.4982 13.8833 29.6209 13.8833 28.4034C9.81 29.2896 8.95058 26.4428 8.95058 26.4428C8.68035 25.5605 8.10626 24.8024 7.33021 24.3032C6.01421 23.408 7.43763 23.408 7.43763 23.408C7.89894 23.4731 8.33938 23.6424 8.72559 23.903C9.11179 24.1635 9.43364 24.5086 9.66676 24.9119C9.86484 25.2711 10.1319 25.5876 10.4526 25.8433C10.7733 26.099 11.1413 26.2889 11.5356 26.402C11.9299 26.5151 12.3426 26.5493 12.7501 26.5025C13.1575 26.4557 13.5518 26.329 13.9102 26.1295C13.9663 25.393 14.2838 24.7009 14.8054 24.1779C11.5647 23.8108 8.16277 22.5575 8.16277 17.016C8.14052 15.5684 8.67581 14.1677 9.65781 13.1038C9.22045 11.8452 9.27157 10.4682 9.80105 9.24538C9.80105 9.24538 11.0275 8.85148 13.8117 10.7404C16.2025 10.084 18.726 10.084 21.1168 10.7404C23.901 8.85148 25.1185 9.24538 25.1185 9.24538C25.6553 10.4552 25.7192 11.8223 25.2975 13.077C26.2795 14.1408 26.8148 15.5415 26.7926 16.9891C26.7926 22.5933 23.3817 23.8198 20.132 24.151C20.4805 24.5013 20.7496 24.9224 20.921 25.3858C21.0925 25.8491 21.1623 26.344 21.1257 26.8367C21.1257 28.7883 21.1257 30.3639 21.1257 30.8384C21.1257 31.3129 21.3854 31.6799 22.1284 31.5367C25.3799 30.4158 28.1307 28.1818 29.8947 25.2293C31.6587 22.2768 32.3224 18.7959 31.7686 15.4014C31.2149 12.007 29.4792 8.91752 26.8683 6.67878C24.2574 4.44003 20.9392 3.19611 17.5 3.16676Z" fill="white"/>
</svg>
