<svg width="35" height="36" viewBox="0 0 35 36" fill="none" xmlns="http://www.w3.org/2000/svg">
<path fill-rule="evenodd" clip-rule="evenodd" d="M7.48588 1.70825H27.5144C30.8433 1.70825 33.5418 4.40681 33.5418 7.73564V27.7642C33.5418 31.093 30.8433 33.7916 27.5144 33.7916H7.48588C4.15705 33.7916 1.4585 31.093 1.4585 27.7642V7.73564C1.4585 4.40681 4.15705 1.70825 7.48588 1.70825ZM8.71717 11.3488C8.71717 10.166 9.67424 9.20888 10.8571 9.20888C12.04 9.20888 12.9971 10.166 12.9971 11.3488C12.9971 12.5317 12.04 13.4888 10.8571 13.4888C9.67424 13.4888 8.71717 12.5317 8.71717 11.3488ZM12.7874 14.9244H8.92149V26.6942H12.7874V14.9244ZM18.718 16.2686C19.4493 15.3599 20.4923 14.6502 21.9817 14.6502V14.6448C26.1165 14.6448 26.2885 18.4032 26.2885 18.4032V26.6942H22.4226V20.4786C22.4226 18.3172 21.4225 17.93 20.6321 17.93C19.8794 17.93 18.8202 18.3172 18.718 19.8012V26.6996H14.8521V14.9298H18.718V16.2686Z" fill="white"/>
</svg>
