<svg width="35" height="36" viewBox="0 0 35 36" fill="none" xmlns="http://www.w3.org/2000/svg">
<path fill-rule="evenodd" clip-rule="evenodd" d="M7.48539 1.70825H27.514C30.8428 1.70825 33.5413 4.40681 33.5413 7.73564V27.7642C33.5413 31.093 30.8428 33.7916 27.514 33.7916H7.48539C4.15656 33.7916 1.45801 31.093 1.45801 27.7642V7.73564C1.45801 4.40681 4.15656 1.70825 7.48539 1.70825ZM14.0612 23.6187C14.0612 24.8243 13.0839 25.8017 11.8782 25.8017C10.6726 25.8017 9.69526 24.8243 9.69526 23.6187C9.69526 22.4131 10.6726 21.4357 11.8782 21.4357C13.0839 21.4357 14.0612 22.4131 14.0612 23.6187ZM9.71677 15.2416V18.3279C13.8408 18.3279 17.1959 21.683 17.1959 25.807H20.2822C20.2822 19.984 15.5452 15.2416 9.71677 15.2416ZM9.71677 12.9296V9.84334C18.5186 9.84334 25.6805 17.0052 25.6805 25.807H22.5942C22.5942 18.7043 16.8195 12.9296 9.71677 12.9296Z" fill="white"/>
</svg>
