<svg width="35" height="36" viewBox="0 0 35 36" fill="none" xmlns="http://www.w3.org/2000/svg">
<path fill-rule="evenodd" clip-rule="evenodd" d="M7.48539 1.70825H27.514C30.8428 1.70825 33.5413 4.40681 33.5413 7.73564V27.7642C33.5413 31.093 30.8428 33.7916 27.514 33.7916H7.48539C4.15656 33.7916 1.45801 31.093 1.45801 27.7642V7.73564C1.45801 4.40681 4.15656 1.70825 7.48539 1.70825ZM26.2612 10.5692C26.0515 11.3919 25.503 11.9726 24.8094 12.5264L24.7987 12.5317C25.2358 12.5452 25.6266 12.4325 26.0172 12.3198C26.2513 12.2524 26.4852 12.1849 26.7289 12.1446C25.917 13.2146 25.0245 13.7523 25.0245 13.7523C25.0141 13.9555 24.9759 14.2926 24.9417 14.5941C24.9054 14.9146 24.8736 15.1949 24.8847 15.2309C24.3255 20.2367 21.1908 22.8767 20.2607 23.5327C14.6903 27.3448 8.36181 23.8069 8.36181 23.8069C10.2652 23.866 12.0019 23.3767 13.5934 22.1885C11.8836 21.968 10.7168 21.1346 10.0878 19.5431C10.6308 19.5216 11.1201 19.5001 11.604 19.4786C9.52858 18.7473 8.63603 16.93 8.7597 15.661C9.26511 15.7955 9.77053 15.9353 10.276 16.075C10.284 16.0589 10.2921 16.0441 10.3001 16.0293C10.3082 16.0146 10.3163 15.9998 10.3243 15.9836C10.2454 15.9064 10.1635 15.8316 10.0816 15.7569C9.8957 15.5873 9.71013 15.418 9.56084 15.2201C8.79733 14.1985 8.57151 13.0748 8.88336 11.8758C9.07693 11.2736 9.37265 10.9187 9.37265 10.9187C9.44793 11.0316 9.87269 11.5747 10.0125 11.7091C10.8244 12.5855 11.7761 13.2253 12.717 13.6931C13.9752 14.3491 15.3678 14.7577 16.9002 14.9083C17.0615 14.9298 17.1529 14.9298 17.1529 14.9298C17.1529 14.8493 17.1541 14.7712 17.1553 14.6949C17.1577 14.5468 17.16 14.4049 17.1529 14.2631C17.0884 13.0748 17.497 12.064 18.3627 11.2521C19.3143 10.3595 20.4542 10.0477 21.7393 10.2735C22.4813 10.4025 23.1265 10.7251 23.6642 11.2467C23.8974 11.4706 24.1307 11.3829 24.3429 11.303C24.3753 11.2909 24.4071 11.2789 24.4384 11.2682C24.863 11.1254 25.2797 10.959 25.705 10.7892C25.8883 10.716 26.0733 10.6421 26.2612 10.5692Z" fill="white"/>
</svg>
