<svg width="36" height="36" viewBox="0 0 36 36" fill="none" xmlns="http://www.w3.org/2000/svg">
<path fill-rule="evenodd" clip-rule="evenodd" d="M7.98539 1.70825H28.014C31.3428 1.70825 34.0413 4.40681 34.0413 7.73564V27.7642C34.0413 31.093 31.3428 33.7916 28.014 33.7916H7.98539C4.65656 33.7916 1.95801 31.093 1.95801 27.7642V7.73564C1.95801 4.40681 4.65656 1.70825 7.98539 1.70825ZM11.3566 10.2466H25.1589H25.1643C27.3634 10.2466 29.1431 12.0317 29.1431 14.2254V21.2798C29.1431 23.4789 27.358 25.2586 25.1643 25.2586H11.3566C9.15754 25.2586 7.37782 23.4735 7.37782 21.2798V14.2254C7.37782 12.0263 9.16291 10.2466 11.3566 10.2466ZM16.1904 14.9244V20.4249V20.4303L21.6156 17.6773L16.1904 14.9244Z" fill="white"/>
</svg>
